<svg width="45" height="46" viewBox="0 0 45 46" fill="none" xmlns="http://www.w3.org/2000/svg">
<path d="M19.976 0.0556107C17.0715 0.398273 14.5249 1.15628 12.1317 2.38157C7.77491 4.60369 4.12378 8.43529 2.05787 12.9626C-0.744405 19.1098 -0.683042 26.1396 2.23173 32.2245C5.92378 39.9396 13.4817 44.8096 21.8681 44.8719C24.026 44.8926 25.1817 44.768 27.1658 44.3111L28.117 44.0931L27.7385 43.6673C27.534 43.4285 26.992 42.8366 26.5317 42.3486C26.0715 41.8606 25.2942 41.0195 24.7829 40.4795C24.2817 39.9396 23.4738 39.0673 22.9931 38.5585C22.5124 38.0394 21.3874 36.8245 20.4874 35.8588C19.5874 34.8827 18.4624 33.6678 17.9817 33.159C14.0442 28.9536 13.9317 28.8186 13.2465 27.4479C12.3056 25.5477 12.1113 24.6962 12.101 22.4637C12.101 20.9373 12.1317 20.5739 12.3363 19.8159C13.1851 16.6696 15.026 14.3125 17.8283 12.8069C20.2317 11.5089 23.392 11.2597 26.0613 12.1423C27.7795 12.7134 29.3033 13.7518 30.8681 15.4132C32.5965 17.2615 33.8442 18.601 36.7999 21.7888C37.7306 22.7856 38.876 24.0213 39.3567 24.5405C39.8374 25.0493 40.6045 25.8696 41.0545 26.3576C42.8647 28.3098 43.3351 28.7874 43.376 28.7459C43.4988 28.6213 43.9897 26.0877 44.1329 24.9039C44.3374 23.1906 44.2658 20.4389 43.9692 18.7256C42.9363 12.7757 39.8783 7.7915 35.0408 4.15719C32.2488 2.07005 28.209 0.491726 24.609 0.0971451C23.6988 -0.00669479 20.692 -0.0378456 19.976 0.0556107Z" fill="#20A49A"/>
<path d="M28.1579 23.3568C27.8818 23.4191 27.2579 23.6476 26.7772 23.8864C25.2329 24.634 23.975 26.1812 23.4943 27.9153C23.4227 28.1749 23.3613 28.8914 23.3613 29.5248C23.3716 30.4282 23.4125 30.802 23.5966 31.3419C24.0466 32.6503 24.3738 33.1072 26.7159 35.5993C27.1761 36.0873 27.9329 36.9076 28.4136 37.4164C28.8841 37.9356 29.692 38.7975 30.2034 39.3374C30.7045 39.8774 31.5125 40.7496 31.9829 41.2584C34.8466 44.3528 35.3886 44.8097 36.6977 45.2562C37.6284 45.5781 39.1829 45.6508 40.0727 45.4119C41.6272 44.9966 42.8545 44.1347 43.7034 42.8679C45.0943 40.7808 45.1352 38.0291 43.8056 35.9835C43.3966 35.3708 43.2841 35.2462 39.9704 31.7054C39.4897 31.1862 38.3647 29.9713 37.4647 29.0056C33.5988 24.8313 33.3738 24.5925 32.6068 24.1252C31.7068 23.5749 30.8579 23.3257 29.692 23.2842C29.1295 23.2634 28.4443 23.2945 28.1579 23.3568Z" fill="#20A49A"/>
</svg>
