<svg width="22" height="17" viewBox="0 0 22 17" fill="none" xmlns="http://www.w3.org/2000/svg">
<path d="M16.3192 7.90267C17.7964 7.90267 18.9939 6.70514 18.9939 5.2279C18.9939 3.75067 17.7964 2.55313 16.3192 2.55313M19.2486 14.005L19.5107 14.0424C20.2967 14.1547 21 13.5448 21 12.7507V11.8711C21 11.2958 20.6383 10.7825 20.0965 10.589C19.5561 10.396 19.0045 10.2457 18.4468 10.1381M5.68085 7.90267C4.20362 7.90267 3.00608 6.70514 3.00608 5.2279C3.00608 3.75067 4.20362 2.55313 5.68085 2.55313M2.75139 14.005L2.48932 14.0424C1.70327 14.1547 1 13.5448 1 12.7507V11.8711C1 11.2958 1.36167 10.7825 1.90347 10.589C2.44392 10.396 2.99546 10.2457 3.55319 10.1381M7.8085 4.40419C7.8085 6.28431 9.33264 7.80845 11.2128 7.80845C13.0929 7.80845 14.617 6.28431 14.617 4.40419C14.617 2.52408 13.0929 0.999939 11.2128 0.999939C9.33264 0.999939 7.8085 2.52408 7.8085 4.40419ZM14.9412 15.5753L15.2747 15.6229C16.2751 15.7658 17.1702 14.9895 17.1702 13.979V12.8594C17.1702 12.1271 16.7099 11.474 16.0203 11.2277C12.9115 10.1174 9.51408 10.1174 6.40518 11.2277C5.71562 11.474 5.25532 12.1271 5.25532 12.8594V13.979C5.25532 14.9895 6.15039 15.7658 7.15082 15.6229L7.48437 15.5753C9.95741 15.222 12.4681 15.222 14.9412 15.5753Z" stroke="url(#paint0_linear_6_276)" stroke-width="1.5" stroke-linecap="round"/>
<defs>
<linearGradient id="paint0_linear_6_276" x1="1" y1="8.31993" x2="21" y2="8.31993" gradientUnits="userSpaceOnUse">
<stop stop-color="#20ADA3"/>
<stop offset="1" stop-color="#E5B044"/>
</linearGradient>
</defs>
</svg>
