<svg width="34" height="34" viewBox="0 0 34 34" fill="none" xmlns="http://www.w3.org/2000/svg">
<path fill-rule="evenodd" clip-rule="evenodd" d="M11 7.96751C8.37665 7.96751 6.25 10.0942 6.25 12.7175L6.25 13.9406C6.25 14.5061 6.64428 14.9154 7.07079 15.0625C7.75803 15.2994 8.25 15.952 8.25 16.7175C8.25 17.483 7.75803 18.1356 7.07079 18.3725C6.64428 18.5196 6.25 18.9289 6.25 19.4945L6.25 20.7175C6.25 23.3409 8.37665 25.4675 11 25.4675L23 25.4675C25.6234 25.4675 27.75 23.3409 27.75 20.7175L27.75 19.4945C27.75 18.9289 27.3557 18.5196 26.9292 18.3725C26.242 18.1356 25.75 17.483 25.75 16.7175C25.75 15.952 26.242 15.2994 26.9292 15.0625C27.3557 14.9154 27.75 14.5061 27.75 13.9406L27.75 12.7175C27.75 10.0942 25.6234 7.96751 23 7.96751L11 7.96751ZM14.2386 15.0758C14.5478 15.3849 15.0489 15.3849 15.358 15.0758C15.6672 14.7667 15.6672 14.2655 15.358 13.9564C15.0489 13.6473 14.5478 13.6473 14.2386 13.9564C13.9295 14.2655 13.9295 14.7667 14.2386 15.0758ZM19.7609 19.4787C19.4518 19.7878 18.9506 19.7878 18.6415 19.4787C18.3324 19.1695 18.3324 18.6684 18.6415 18.3592C18.9506 18.0501 19.4518 18.0501 19.7609 18.3592C20.07 18.6684 20.07 19.1695 19.7609 19.4787ZM19.769 15.0091C20.0619 14.7162 20.0619 14.2413 19.769 13.9484C19.4761 13.6555 19.0012 13.6555 18.7083 13.9484L14.2307 18.426C13.9378 18.7189 13.9378 19.1938 14.2307 19.4867C14.5236 19.7796 14.9985 19.7796 15.2914 19.4867L19.769 15.0091Z" fill="#FFB424"/>
</svg>
